<svg width="192" height="49" viewBox="0 0 192 49" fill="none" xmlns="http://www.w3.org/2000/svg">
<path d="M0 6.8811V28.6879H4.98441V21.8343H8.25543C10.405 21.8343 12.2118 21.1178 13.676 19.6537C15.1402 18.1895 15.8878 16.4449 15.8878 14.3577C15.8878 12.2705 15.1402 10.526 13.676 9.06178C12.2118 7.59761 10.405 6.8811 8.25543 6.8811H0ZM4.98441 17.1615V11.554H8.25543C9.78191 11.554 10.9034 12.7689 10.9034 14.3577C10.9034 15.9465 9.78191 17.1615 8.25543 17.1615H4.98441Z" fill="#9998A0"/>
<path d="M28.5847 14.5758C27.4943 13.2985 25.9367 12.6755 23.9429 12.6755C21.8869 12.6755 20.1423 13.4855 18.6782 15.0742C17.214 16.663 16.4975 18.5945 16.4975 20.8998C16.4975 23.2051 17.214 25.1677 18.6782 26.7564C20.1423 28.3452 21.8869 29.124 23.9429 29.124C25.9367 29.124 27.4943 28.501 28.5847 27.2237V28.6879H33.2576V13.1116H28.5847V14.5758ZM22.1984 23.6723C21.513 22.987 21.1704 22.0524 21.1704 20.8998C21.1704 19.7471 21.513 18.8125 22.1984 18.1272C22.8838 17.4418 23.7872 17.0992 24.8775 17.0992C25.9679 17.0992 26.8713 17.4418 27.5566 18.1272C28.242 18.8125 28.5847 19.7471 28.5847 20.8998C28.5847 22.0524 28.242 22.987 27.5566 23.6723C26.8713 24.3577 25.9679 24.7004 24.8775 24.7004C23.7872 24.7004 22.8838 24.3577 22.1984 23.6723Z" fill="#9998A0"/>
<path d="M43.5705 22.6443L40.1126 13.1116H34.9724L41.1718 27.9714C40.4553 29.8717 39.4272 30.5571 37.2777 30.5571V34.9184C41.6702 35.1365 44.4116 33.1116 46.1562 28.2206L51.4833 13.1116H46.4989L43.5705 22.6443Z" fill="#9998A0"/>
<path d="M174.742 33.5791C174.451 32.7181 174.666 32.3256 175.033 32.1357C175.603 31.8445 176.262 32.1104 176.477 32.1357C176.603 32.1483 179.959 33.3259 185.821 35.8583C189.645 32.0597 192 26.7924 192 20.9806C192 9.39507 182.605 0 171.02 0H80.1584C68.5728 0 59.1777 9.39507 59.1777 20.9806C59.1777 32.5662 68.5728 41.9613 80.1584 41.9613H171.02C173.349 41.9613 175.59 41.5814 177.68 40.8723C175.603 36.0862 174.78 33.6804 174.742 33.5791Z" fill="#635BFE"/>
<path d="M177.273 34.373C177.027 34.4375 177.008 34.5895 177.027 34.725C176.986 34.9858 182.725 47.8806 182.82 48.011C182.988 48.2389 183.358 48.2136 183.486 47.9654C183.507 47.9249 183.781 47.0449 184.097 46.0104C184.752 43.8579 184.801 43.7072 184.925 43.4629C185.194 42.9273 185.67 42.4499 186.206 42.1828C186.449 42.0587 186.601 42.0093 188.753 41.3547C189.788 41.0381 190.668 40.7646 190.708 40.7431C190.957 40.6165 190.982 40.2455 190.754 40.0771C190.608 39.972 177.732 34.4515 177.602 34.4375C177.602 34.4363 177.344 34.3286 177.273 34.373Z" fill="#FFAF30"/>
<path d="M95.2023 13.0742C93.1462 13.0742 91.6509 13.7596 90.6852 15.1303C89.7817 13.7596 88.411 13.0742 86.6042 13.0742C84.6727 13.0742 83.2708 13.6973 82.4297 14.9434V13.5104H77.7568V29.0866H82.4297V20.3016C82.4297 18.4636 83.3331 17.3733 84.8596 17.3733C86.3238 17.3733 87.1026 18.339 87.1026 19.9278V29.0866H91.7755V20.3016C91.7755 18.4636 92.6789 17.3733 94.2054 17.3733C95.6696 17.3733 96.4484 18.339 96.4484 19.9278V29.0866H101.121V19.5228C101.121 17.5602 100.592 16.0026 99.5013 14.8499C98.411 13.6661 96.978 13.0742 95.2023 13.0742Z" fill="white"/>
<path d="M117.649 27.1552C119.238 25.5664 120.048 23.6038 120.048 21.2985C120.048 18.9932 119.238 17.0617 117.649 15.473C116.06 13.8842 114.098 13.0742 111.792 13.0742C109.487 13.0742 107.524 13.8842 105.936 15.473C104.347 17.0617 103.537 18.9932 103.537 21.2985C103.537 23.6038 104.347 25.5664 105.936 27.1552C107.524 28.744 109.487 29.5228 111.792 29.5228C114.098 29.5228 116.06 28.744 117.649 27.1552ZM109.238 23.9465C108.552 23.2611 108.21 22.3888 108.21 21.2985C108.21 20.2082 108.552 19.3359 109.238 18.6505C109.923 17.9652 110.764 17.6225 111.792 17.6225C112.82 17.6225 113.661 17.9652 114.347 18.6505C115.032 19.3359 115.375 20.2082 115.375 21.2985C115.375 22.3888 115.032 23.2611 114.347 23.9465C113.661 24.6318 112.82 24.9745 111.792 24.9745C110.764 24.9745 109.923 24.6318 109.238 23.9465Z" fill="white"/>
<path d="M131.818 13.0742C129.794 13.0742 128.298 13.6973 127.364 14.9745V13.5104H122.691V29.0866H127.364V20.582C127.364 18.4636 128.485 17.3733 130.261 17.3733C131.85 17.3733 132.971 18.3702 132.971 20.2082V29.0866H137.644V19.5228C137.644 17.4979 137.083 15.9403 135.962 14.7876C134.871 13.635 133.47 13.0742 131.818 13.0742Z" fill="white"/>
<path d="M156.087 23.1677C156.211 22.5758 156.273 21.9527 156.273 21.2985C156.273 18.9621 155.526 16.9994 153.999 15.4418C152.504 13.853 150.635 13.0742 148.361 13.0742C145.931 13.0742 143.937 13.853 142.379 15.4418C140.853 16.9994 140.074 18.9621 140.074 21.2985C140.074 23.6661 140.853 25.6287 142.411 27.1863C143.999 28.744 146.087 29.5228 148.703 29.5228C151.694 29.5228 153.968 28.4636 155.495 26.3141L151.756 24.1645C151.04 24.9434 150.043 25.3483 148.766 25.3483C146.803 25.3483 145.557 24.6318 145.027 23.1677H156.087ZM144.934 19.6786C145.401 18.0275 146.523 17.2175 148.33 17.2175C150.074 17.2175 151.164 18.0275 151.632 19.6786H144.934Z" fill="white"/>
<path d="M165.2 23.043L161.742 13.5104H156.602L162.801 28.3701C162.085 30.2704 161.057 30.9558 158.907 30.9558V35.3172C163.3 35.5352 166.041 33.5103 167.786 28.6194L173.113 13.5104H168.129L165.2 23.043Z" fill="white"/>
</svg>

