<svg width="93" height="241" viewBox="0 0 93 241" fill="none" xmlns="http://www.w3.org/2000/svg">
<g opacity="0.5">
<ellipse cx="3.54054" cy="3.54412" rx="3.54054" ry="3.54412" fill="#9D80F8"/>
<ellipse cx="3.54054" cy="24.8088" rx="3.54054" ry="3.54412" fill="#9D80F8"/>
<ellipse cx="3.54054" cy="46.0734" rx="3.54054" ry="3.54412" fill="#9D80F8"/>
<ellipse cx="3.54054" cy="67.3383" rx="3.54054" ry="3.54412" fill="#9D80F8"/>
<ellipse cx="3.54054" cy="88.603" rx="3.54054" ry="3.54412" fill="#9D80F8"/>
<ellipse cx="3.54054" cy="109.868" rx="3.54054" ry="3.54411" fill="#9D80F8"/>
<ellipse cx="3.54054" cy="131.132" rx="3.54054" ry="3.54412" fill="#9D80F8"/>
<ellipse cx="3.54054" cy="152.397" rx="3.54054" ry="3.54412" fill="#9D80F8"/>
<ellipse cx="3.54054" cy="173.662" rx="3.54054" ry="3.54411" fill="#9D80F8"/>
<ellipse cx="3.54054" cy="194.926" rx="3.54054" ry="3.54412" fill="#9D80F8"/>
<ellipse cx="3.54054" cy="216.191" rx="3.54054" ry="3.54411" fill="#9D80F8"/>
<ellipse cx="3.54054" cy="237.456" rx="3.54054" ry="3.54413" fill="#9D80F8"/>
<ellipse cx="24.7837" cy="3.54412" rx="3.54054" ry="3.54412" fill="#9D80F8"/>
<ellipse cx="24.7837" cy="24.8088" rx="3.54054" ry="3.54412" fill="#9D80F8"/>
<ellipse cx="24.7837" cy="46.0734" rx="3.54054" ry="3.54412" fill="#9D80F8"/>
<ellipse cx="24.7837" cy="67.3383" rx="3.54054" ry="3.54412" fill="#9D80F8"/>
<ellipse cx="24.7837" cy="88.603" rx="3.54054" ry="3.54412" fill="#9D80F8"/>
<ellipse cx="24.7837" cy="109.868" rx="3.54054" ry="3.54411" fill="#9D80F8"/>
<ellipse cx="24.7837" cy="131.132" rx="3.54054" ry="3.54412" fill="#9D80F8"/>
<ellipse cx="24.7837" cy="152.397" rx="3.54054" ry="3.54412" fill="#9D80F8"/>
<ellipse cx="24.7837" cy="173.662" rx="3.54054" ry="3.54411" fill="#9D80F8"/>
<ellipse cx="24.7837" cy="194.926" rx="3.54054" ry="3.54412" fill="#9D80F8"/>
<ellipse cx="24.7837" cy="216.191" rx="3.54054" ry="3.54411" fill="#9D80F8"/>
<ellipse cx="24.7837" cy="237.456" rx="3.54054" ry="3.54413" fill="#9D80F8"/>
<ellipse cx="46.0271" cy="3.54412" rx="3.54054" ry="3.54412" fill="#9D80F8"/>
<ellipse cx="46.0271" cy="24.8088" rx="3.54054" ry="3.54412" fill="#9D80F8"/>
<ellipse cx="46.0271" cy="46.0734" rx="3.54054" ry="3.54412" fill="#9D80F8"/>
<ellipse cx="46.0271" cy="67.3383" rx="3.54054" ry="3.54412" fill="#9D80F8"/>
<ellipse cx="46.0271" cy="88.603" rx="3.54054" ry="3.54412" fill="#9D80F8"/>
<ellipse cx="46.0271" cy="109.868" rx="3.54054" ry="3.54411" fill="#9D80F8"/>
<ellipse cx="46.0271" cy="131.132" rx="3.54054" ry="3.54412" fill="#9D80F8"/>
<ellipse cx="46.0271" cy="152.397" rx="3.54054" ry="3.54412" fill="#9D80F8"/>
<ellipse cx="46.0271" cy="173.662" rx="3.54054" ry="3.54411" fill="#9D80F8"/>
<ellipse cx="46.0271" cy="194.926" rx="3.54054" ry="3.54412" fill="#9D80F8"/>
<ellipse cx="46.0271" cy="216.191" rx="3.54054" ry="3.54411" fill="#9D80F8"/>
<ellipse cx="46.0271" cy="237.456" rx="3.54054" ry="3.54413" fill="#9D80F8"/>
<ellipse cx="67.2703" cy="3.54412" rx="3.54054" ry="3.54412" fill="#9D80F8"/>
<ellipse cx="67.2703" cy="24.8088" rx="3.54054" ry="3.54412" fill="#9D80F8"/>
<ellipse cx="67.2703" cy="46.0734" rx="3.54054" ry="3.54412" fill="#9D80F8"/>
<ellipse cx="67.2703" cy="67.3383" rx="3.54054" ry="3.54412" fill="#9D80F8"/>
<ellipse cx="67.2703" cy="88.603" rx="3.54054" ry="3.54412" fill="#9D80F8"/>
<ellipse cx="67.2703" cy="109.868" rx="3.54054" ry="3.54411" fill="#9D80F8"/>
<ellipse cx="67.2703" cy="131.132" rx="3.54054" ry="3.54412" fill="#9D80F8"/>
<ellipse cx="67.2703" cy="152.397" rx="3.54054" ry="3.54412" fill="#9D80F8"/>
<ellipse cx="67.2703" cy="173.662" rx="3.54054" ry="3.54411" fill="#9D80F8"/>
<ellipse cx="67.2703" cy="194.926" rx="3.54054" ry="3.54412" fill="#9D80F8"/>
<ellipse cx="67.2703" cy="216.191" rx="3.54054" ry="3.54411" fill="#9D80F8"/>
<ellipse cx="67.2703" cy="237.456" rx="3.54054" ry="3.54413" fill="#9D80F8"/>
<ellipse cx="88.5134" cy="3.54412" rx="3.54054" ry="3.54412" fill="#9D80F8"/>
<ellipse cx="88.5134" cy="24.8088" rx="3.54054" ry="3.54412" fill="#9D80F8"/>
<ellipse cx="88.5134" cy="46.0734" rx="3.54054" ry="3.54412" fill="#9D80F8"/>
<ellipse cx="88.5134" cy="67.3383" rx="3.54054" ry="3.54412" fill="#9D80F8"/>
<ellipse cx="88.5134" cy="88.603" rx="3.54054" ry="3.54412" fill="#9D80F8"/>
<ellipse cx="88.5134" cy="109.868" rx="3.54054" ry="3.54411" fill="#9D80F8"/>
<ellipse cx="88.5134" cy="131.132" rx="3.54054" ry="3.54412" fill="#9D80F8"/>
<ellipse cx="88.5134" cy="152.397" rx="3.54054" ry="3.54412" fill="#9D80F8"/>
<ellipse cx="88.5134" cy="173.662" rx="3.54054" ry="3.54411" fill="#9D80F8"/>
<ellipse cx="88.5134" cy="194.926" rx="3.54054" ry="3.54412" fill="#9D80F8"/>
<ellipse cx="88.5134" cy="216.191" rx="3.54054" ry="3.54411" fill="#9D80F8"/>
<ellipse cx="88.5134" cy="237.456" rx="3.54054" ry="3.54413" fill="#9D80F8"/>
</g>
</svg>
