<svg width="237" height="68" viewBox="0 0 237 68" fill="none" xmlns="http://www.w3.org/2000/svg">
<path d="M235.684 60.1573C235.684 63.7811 232.667 66.7164 228.935 66.7164H8.07466C4.34463 66.7164 1.31696 63.7811 1.31696 60.1573V7.8502C1.31696 4.22811 4.34463 1.28249 8.07466 1.28249H228.933C232.667 1.28249 235.682 4.22811 235.682 7.8502L235.684 60.1573Z" fill="black"/>
<path d="M228.222 1.36212C232.286 1.36212 235.593 4.5645 235.593 8.5V59.5C235.593 63.4355 232.286 66.6379 228.222 66.6379H8.77778C4.71367 66.6379 1.40664 63.4355 1.40664 59.5V8.5C1.40664 4.5645 4.71367 1.36212 8.77778 1.36212H228.222ZM228.222 0H8.77778C3.95219 0 0 3.82712 0 8.5V59.5C0 64.1729 3.95219 68 8.77778 68H228.222C233.048 68 237 64.1729 237 59.5V8.5C237 3.82712 233.048 0 228.222 0Z" fill="#A6A6A6"/>
<path d="M52.8912 33.6326C52.8403 28.1535 57.5241 25.4879 57.7383 25.3638C55.0856 21.6187 50.9741 21.107 49.5293 21.0662C46.0761 20.7143 42.7265 23.0671 40.9675 23.0671C39.1733 23.0671 36.4645 21.1002 33.545 21.158C29.7881 21.2141 26.2735 23.3204 24.3459 26.5912C20.3678 33.2603 23.3347 43.0608 27.146 48.4515C29.0525 51.0916 31.2803 54.0394 34.1963 53.9357C37.0491 53.8218 38.1147 52.1745 41.5573 52.1745C44.9684 52.1745 45.969 53.9357 48.943 53.8694C52.0046 53.8218 53.9322 51.2174 55.7721 48.5535C57.9753 45.5275 58.8601 42.5474 58.8952 42.3944C58.8232 42.3706 52.9491 40.1997 52.8912 33.6326Z" fill="white"/>
<path d="M47.2734 17.52C48.8078 15.6619 49.8576 13.134 49.5662 10.5687C47.3454 10.6639 44.5681 12.0562 42.9688 13.8735C41.5538 15.4749 40.2898 18.0997 40.6164 20.5681C43.111 20.7483 45.6724 19.3492 47.2734 17.52Z" fill="white"/>
<path d="M94.1774 53.5566H90.1905L88.0066 46.9113H80.4156L78.3352 53.5566H74.4537L81.9745 30.933H86.6197L94.1774 53.5566ZM87.3482 44.1233L85.3733 38.2158C85.1643 37.6123 84.7728 36.1911 84.1953 33.9539H84.125C83.8951 34.9161 83.5246 36.3373 83.0155 38.2158L81.0756 44.1233H87.3482Z" fill="white"/>
<path d="M113.518 45.1989C113.518 47.9733 112.744 50.1663 111.196 51.7762C109.809 53.2093 108.086 53.9249 106.031 53.9249C103.812 53.9249 102.218 53.1532 101.247 51.6096H101.177V60.2031H97.4338V42.6132C97.4338 40.869 97.3864 39.0789 97.2951 37.2429H100.587L100.796 39.8286H100.866C102.114 37.8804 104.008 36.908 106.55 36.908C108.538 36.908 110.197 37.6679 111.524 39.1894C112.855 40.7126 113.518 42.7152 113.518 45.1989ZM109.705 45.3315C109.705 43.7437 109.336 42.4347 108.596 41.4045C107.786 40.3301 106.7 39.7929 105.337 39.7929C104.414 39.7929 103.575 40.0921 102.825 40.682C102.074 41.277 101.582 42.0539 101.352 43.0161C101.236 43.4649 101.178 43.8321 101.178 44.1211V46.8411C101.178 48.0277 101.554 49.029 102.305 49.8467C103.057 50.6644 104.033 51.0723 105.234 51.0723C106.643 51.0723 107.741 50.5454 108.525 49.4948C109.312 48.4425 109.705 47.0553 109.705 45.3315Z" fill="white"/>
<path d="M132.896 45.1989C132.896 47.9733 132.122 50.1663 130.572 51.7762C129.186 53.2093 127.464 53.9249 125.408 53.9249C123.189 53.9249 121.595 53.1532 120.626 51.6096H120.556V60.2031H116.813V42.6132C116.813 40.869 116.766 39.0789 116.675 37.2429H119.966L120.175 39.8286H120.245C121.492 37.8804 123.386 36.908 125.93 36.908C127.915 36.908 129.574 37.6679 130.905 39.1894C132.231 40.7126 132.896 42.7152 132.896 45.1989ZM129.083 45.3315C129.083 43.7437 128.712 42.4347 127.972 41.4045C127.162 40.3301 126.079 39.7929 124.715 39.7929C123.79 39.7929 122.952 40.0921 122.201 40.682C121.45 41.277 120.96 42.0539 120.73 43.0161C120.616 43.4649 120.556 43.8321 120.556 44.1211V46.8411C120.556 48.0277 120.932 49.029 121.68 49.8467C122.431 50.6627 123.407 51.0723 124.611 51.0723C126.021 51.0723 127.118 50.5454 127.903 49.4948C128.69 48.4425 129.083 47.0553 129.083 45.3315Z" fill="white"/>
<path d="M154.557 47.2119C154.557 49.1363 153.868 50.702 152.482 51.9107C150.96 53.2316 148.841 53.8912 146.118 53.8912C143.605 53.8912 141.589 53.422 140.064 52.4819L140.931 49.461C142.574 50.4232 144.377 50.906 146.341 50.906C147.751 50.906 148.848 50.5966 149.637 49.9812C150.421 49.3658 150.813 48.5396 150.813 47.5094C150.813 46.5914 150.49 45.8179 149.842 45.1906C149.198 44.5633 148.122 43.9802 146.619 43.4413C142.528 41.964 140.485 39.7999 140.485 36.9541C140.485 35.0943 141.201 33.5694 142.635 32.3828C144.064 31.1945 145.971 30.6012 148.355 30.6012C150.481 30.6012 152.247 30.9599 153.657 31.6756L152.721 34.6302C151.404 33.9366 149.916 33.5898 148.25 33.5898C146.933 33.5898 145.904 33.9043 145.167 34.5299C144.544 35.0892 144.231 35.7709 144.231 36.5784C144.231 37.4726 144.588 38.2121 145.304 38.7935C145.927 39.3307 147.059 39.9121 148.703 40.5394C150.713 41.3231 152.189 42.2394 153.139 43.29C154.085 44.3372 154.557 45.6479 154.557 47.2119Z" fill="white"/>
<path d="M166.932 39.963H162.806V47.8833C162.806 49.8978 163.533 50.9042 164.99 50.9042C165.659 50.9042 166.214 50.8481 166.653 50.7359L166.756 53.4882C166.019 53.7551 165.048 53.8894 163.845 53.8894C162.367 53.8894 161.212 53.4525 160.378 52.5804C159.548 51.7066 159.13 50.2412 159.13 48.1825V39.9596H156.672V37.2396H159.13V34.2527L162.806 33.1783V37.2396H166.932V39.963Z" fill="white"/>
<path d="M185.547 45.2651C185.547 47.7726 184.806 49.8313 183.328 51.4412C181.778 53.0987 179.72 53.9249 177.155 53.9249C174.683 53.9249 172.715 53.131 171.248 51.5432C169.78 49.9554 169.046 47.9511 169.046 45.5354C169.046 43.0075 169.801 40.9369 171.316 39.327C172.828 37.7154 174.868 36.9096 177.433 36.9096C179.904 36.9096 181.894 37.7035 183.395 39.293C184.831 40.8349 185.547 42.8256 185.547 45.2651ZM181.664 45.3824C181.664 43.8779 181.332 42.5876 180.659 41.5115C179.875 40.2093 178.753 39.5599 177.299 39.5599C175.795 39.5599 174.652 40.211 173.867 41.5115C173.195 42.5893 172.863 43.9 172.863 45.4504C172.863 46.9549 173.195 48.2452 173.867 49.3196C174.676 50.6218 175.807 51.2712 177.266 51.2712C178.695 51.2712 179.817 50.6082 180.626 49.2856C181.316 48.1891 181.664 46.8852 181.664 45.3824Z" fill="white"/>
<path d="M197.713 40.4304C197.342 40.3641 196.947 40.3301 196.533 40.3301C195.216 40.3301 194.198 40.8111 193.482 41.7751C192.859 42.625 192.546 43.6995 192.546 44.9966V53.5561H188.805L188.84 42.3803C188.84 40.5001 188.793 38.7882 188.7 37.2446H191.96L192.097 40.3658H192.2C192.595 39.2931 193.219 38.4295 194.072 37.7818C194.906 37.1987 195.806 36.908 196.777 36.908C197.123 36.908 197.435 36.9318 197.713 36.9743V40.4304Z" fill="white"/>
<path d="M214.451 44.6275C214.451 45.2769 214.407 45.8243 214.314 46.2714H203.086C203.13 47.883 203.672 49.1155 204.715 49.9655C205.661 50.7254 206.885 51.1062 208.388 51.1062C210.05 51.1062 211.567 50.8495 212.931 50.3344L213.517 52.8504C211.923 53.5236 210.041 53.8585 207.87 53.8585C205.257 53.8585 203.207 53.1139 201.715 51.6264C200.226 50.1389 199.48 48.1414 199.48 45.6356C199.48 43.1757 200.173 41.1272 201.562 39.4935C203.016 37.7493 204.98 36.8772 207.452 36.8772C209.88 36.8772 211.718 37.7493 212.966 39.4935C213.954 40.879 214.451 42.5926 214.451 44.6275ZM210.882 43.6874C210.907 42.613 210.663 41.6848 210.155 40.9011C209.508 39.893 208.512 39.3898 207.173 39.3898C205.949 39.3898 204.954 39.8811 204.193 40.8671C203.57 41.6508 203.2 42.5909 203.086 43.6857H210.882V43.6874Z" fill="white"/>
<path d="M86.1112 17.0151C86.1112 19.016 85.4915 20.5222 84.2539 21.5337C83.1075 22.467 81.4783 22.9345 79.3681 22.9345C78.3218 22.9345 77.4265 22.8903 76.6769 22.8019V11.8692C77.6547 11.7162 78.7081 11.638 79.8456 11.638C81.8558 11.638 83.3708 12.0613 84.3925 12.9079C85.5372 13.865 86.1112 15.2335 86.1112 17.0151ZM84.1713 17.0644C84.1713 15.7673 83.8167 14.7728 83.1075 14.0792C82.3982 13.3873 81.3625 13.0405 79.9984 13.0405C79.4191 13.0405 78.9257 13.0779 78.5167 13.1561V21.4674C78.7432 21.5014 79.1575 21.5167 79.7596 21.5167C81.1676 21.5167 82.2543 21.1376 83.0197 20.3794C83.7851 19.6212 84.1713 18.5162 84.1713 17.0644Z" fill="white"/>
<path d="M96.3969 18.7631C96.3969 19.9956 96.0335 21.0054 95.3067 21.7976C94.5448 22.6119 93.5354 23.0182 92.2749 23.0182C91.06 23.0182 90.0927 22.6289 89.3712 21.8469C88.6514 21.0666 88.2915 20.0823 88.2915 18.8957C88.2915 17.6547 88.6619 16.6364 89.4063 15.8459C90.1506 15.0554 91.1513 14.6593 92.4118 14.6593C93.6267 14.6593 94.6027 15.0486 95.3418 15.8289C96.0441 16.5871 96.3969 17.5663 96.3969 18.7631ZM94.4886 18.8209C94.4886 18.0814 94.3236 17.4473 93.9953 16.9186C93.6091 16.2794 93.0596 15.9598 92.3451 15.9598C91.606 15.9598 91.0442 16.2794 90.658 16.9186C90.328 17.4473 90.1647 18.0916 90.1647 18.8532C90.1647 19.5927 90.3297 20.2268 90.658 20.7555C91.0565 21.3947 91.6113 21.7143 92.3275 21.7143C93.0298 21.7143 93.581 21.3896 93.9778 20.7385C94.3183 20.1996 94.4886 19.5604 94.4886 18.8209Z" fill="white"/>
<path d="M110.189 14.822L107.599 22.8358H105.914L104.841 19.3559C104.569 18.4872 104.348 17.6236 104.176 16.7668H104.142C103.983 17.6474 103.762 18.5093 103.477 19.3559L102.338 22.8358H100.633L98.1982 14.822H100.089L101.025 18.6317C101.251 19.5327 101.437 20.3912 101.586 21.2038H101.62C101.757 20.534 101.983 19.6806 102.303 18.6487L103.477 14.8237H104.976L106.102 18.5671C106.374 19.48 106.595 20.3589 106.765 21.2055H106.816C106.941 20.381 107.129 19.5021 107.378 18.5671L108.382 14.8237H110.189V14.822Z" fill="white"/>
<path d="M119.727 22.8359H117.887V18.2459C117.887 16.8315 117.332 16.1243 116.219 16.1243C115.673 16.1243 115.232 16.3181 114.89 16.7074C114.551 17.0967 114.379 17.5557 114.379 18.081V22.8342H112.539V17.112C112.539 16.4082 112.516 15.6449 112.473 14.8187H114.089L114.175 16.0716H114.226C114.441 15.6823 114.76 15.361 115.18 15.1043C115.678 14.8051 116.237 14.6538 116.847 14.6538C117.62 14.6538 118.262 14.8952 118.773 15.3797C119.409 15.973 119.727 16.8587 119.727 18.0351V22.8359Z" fill="white"/>
<path d="M124.799 22.8358H122.961V11.1449H124.799V22.8358Z" fill="white"/>
<path d="M135.632 18.7623C135.632 19.9948 135.268 21.0046 134.542 21.7968C133.78 22.6111 132.768 23.0174 131.51 23.0174C130.293 23.0174 129.326 22.6281 128.606 21.8461C127.886 21.0658 127.526 20.0815 127.526 18.8949C127.526 17.6539 127.897 16.6356 128.641 15.8451C129.386 15.0546 130.386 14.6585 131.645 14.6585C132.862 14.6585 133.836 15.0478 134.577 15.8281C135.279 16.5863 135.632 17.5655 135.632 18.7623ZM133.722 18.8201C133.722 18.0806 133.557 17.4465 133.228 16.9178C132.844 16.2786 132.293 15.959 131.58 15.959C130.839 15.959 130.277 16.2786 129.893 16.9178C129.563 17.4465 129.4 18.0908 129.4 18.8524C129.4 19.5919 129.565 20.226 129.893 20.7547C130.291 21.3939 130.846 21.7135 131.562 21.7135C132.265 21.7135 132.814 21.3888 133.211 20.7377C133.553 20.1988 133.722 19.5596 133.722 18.8201Z" fill="white"/>
<path d="M144.537 22.8363H142.885L142.748 21.9132H142.697C142.131 22.6493 141.326 23.0182 140.279 23.0182C139.498 23.0182 138.866 22.7751 138.39 22.2923C137.959 21.8537 137.743 21.308 137.743 20.6603C137.743 19.6811 138.164 18.9348 139.012 18.418C139.858 17.9012 141.048 17.6479 142.581 17.6598V17.5102C142.581 16.4545 142.009 15.9275 140.862 15.9275C140.046 15.9275 139.326 16.1264 138.705 16.5208L138.331 15.3512C139.1 14.8905 140.049 14.6593 141.169 14.6593C143.332 14.6593 144.417 15.7643 144.417 17.9743V20.9255C144.417 21.7262 144.458 22.3637 144.537 22.8363ZM142.627 20.0823V18.8464C140.597 18.8124 139.582 19.3513 139.582 20.4614C139.582 20.8796 139.698 21.1924 139.935 21.4015C140.172 21.6106 140.474 21.7143 140.834 21.7143C141.238 21.7143 141.615 21.5902 141.959 21.3437C142.305 21.0955 142.518 20.781 142.597 20.3951C142.616 20.3084 142.627 20.203 142.627 20.0823Z" fill="white"/>
<path d="M154.992 22.8358H153.359L153.273 21.549H153.222C152.701 22.5282 151.812 23.0177 150.564 23.0177C149.567 23.0177 148.737 22.6387 148.078 21.8805C147.42 21.1223 147.092 20.138 147.092 18.9293C147.092 17.6322 147.448 16.5815 148.164 15.7791C148.858 15.0311 149.707 14.6571 150.719 14.6571C151.83 14.6571 152.608 15.0192 153.05 15.7451H153.085V11.1449H154.927V20.6769C154.927 21.4572 154.948 22.1763 154.992 22.8358ZM153.085 19.4562V18.1201C153.085 17.8889 153.068 17.7019 153.034 17.559C152.931 17.1306 152.708 16.7703 152.369 16.4795C152.027 16.1889 151.614 16.0427 151.138 16.0427C150.452 16.0427 149.915 16.3062 149.52 16.8349C149.128 17.3636 148.93 18.0385 148.93 18.863C148.93 19.6551 149.118 20.2978 149.495 20.7924C149.894 21.3195 150.431 21.583 151.103 21.583C151.707 21.583 152.19 21.3636 152.557 20.9233C152.911 20.517 153.085 20.0275 153.085 19.4562Z" fill="white"/>
<path d="M170.727 18.7631C170.727 19.9956 170.363 21.0054 169.637 21.7976C168.875 22.6119 167.867 23.0182 166.605 23.0182C165.392 23.0182 164.424 22.6289 163.701 21.8469C162.981 21.0666 162.621 20.0823 162.621 18.8957C162.621 17.6547 162.992 16.6364 163.736 15.8459C164.48 15.0554 165.481 14.6593 166.743 14.6593C167.956 14.6593 168.934 15.0486 169.672 15.8289C170.374 16.5871 170.727 17.5663 170.727 18.7631ZM168.82 18.8209C168.82 18.0814 168.655 17.4473 168.327 16.9186C167.939 16.2794 167.391 15.9598 166.675 15.9598C165.938 15.9598 165.376 16.2794 164.988 16.9186C164.658 17.4473 164.495 18.0916 164.495 18.8532C164.495 19.5927 164.66 20.2268 164.988 20.7555C165.386 21.3947 165.941 21.7143 166.657 21.7143C167.36 21.7143 167.913 21.3896 168.309 20.7385C168.648 20.1996 168.82 19.5604 168.82 18.8209Z" fill="white"/>
<path d="M180.618 22.8359H178.78V18.2459C178.78 16.8315 178.225 16.1243 177.11 16.1243C176.564 16.1243 176.124 16.3181 175.783 16.7074C175.442 17.0967 175.272 17.5557 175.272 18.081V22.8342H173.431V17.112C173.431 16.4082 173.41 15.6449 173.366 14.8187H174.981L175.067 16.0716H175.118C175.334 15.6823 175.653 15.361 176.071 15.1043C176.571 14.8051 177.128 14.6538 177.74 14.6538C178.511 14.6538 179.154 14.8952 179.665 15.3797C180.302 15.973 180.618 16.8587 180.618 18.0351V22.8359Z" fill="white"/>
<path d="M193 16.1564H190.974V20.0494C190.974 21.0388 191.334 21.5335 192.047 21.5335C192.377 21.5335 192.651 21.5063 192.866 21.4502L192.914 22.8017C192.55 22.9343 192.073 23.0006 191.485 23.0006C190.758 23.0006 190.193 22.7864 189.784 22.358C189.373 21.9296 189.169 21.2088 189.169 20.1973V16.1564H187.96V14.8219H189.169V13.3531L190.972 12.8261V14.8202H192.998V16.1564H193Z" fill="white"/>
<path d="M202.739 22.8358H200.897V18.2799C200.897 16.8433 200.343 16.1243 199.231 16.1243C198.378 16.1243 197.795 16.5408 197.476 17.3738C197.421 17.5488 197.39 17.7631 197.39 18.0147V22.8342H195.552V11.1449H197.39V15.9747H197.425C198.004 15.0958 198.835 14.6571 199.911 14.6571C200.673 14.6571 201.303 14.8985 201.803 15.383C202.427 15.9865 202.739 16.8841 202.739 18.0707V22.8358Z" fill="white"/>
<path d="M212.786 18.4494C212.786 18.769 212.762 19.0376 212.718 19.257H207.2C207.225 20.0492 207.488 20.6527 207.999 21.0709C208.466 21.4448 209.068 21.6318 209.806 21.6318C210.622 21.6318 211.366 21.506 212.037 21.2527L212.325 22.4903C211.54 22.8202 210.617 22.985 209.547 22.985C208.266 22.985 207.256 22.6195 206.526 21.8885C205.792 21.1575 205.429 20.1766 205.429 18.9459C205.429 17.7372 205.768 16.7307 206.451 15.9283C207.163 15.0715 208.127 14.6431 209.344 14.6431C210.534 14.6431 211.438 15.0715 212.049 15.9283C212.542 16.6083 212.786 17.4498 212.786 18.4494ZM211.031 17.9887C211.045 17.46 210.924 17.0044 210.675 16.6203C210.355 16.1255 209.869 15.8773 209.21 15.8773C208.61 15.8773 208.12 16.1187 207.746 16.6033C207.441 16.9891 207.26 17.4498 207.2 17.9887H211.031Z" fill="white"/>
</svg>
