<svg width="236" height="68" viewBox="0 0 236 68" fill="none" xmlns="http://www.w3.org/2000/svg">
<path d="M227.259 68H8.74074C3.93552 68 0 64.1729 0 59.5V8.5C0 3.82713 3.93552 0 8.74074 0H227.259C232.064 0 236 3.82713 236 8.5V59.5C236 64.1729 232.064 68 227.259 68Z" fill="black"/>
<path d="M227.259 1.36212C231.306 1.36212 234.599 4.5645 234.599 8.5V59.5C234.599 63.4355 231.306 66.6379 227.259 66.6379H8.74074C4.69378 66.6379 1.4007 63.4355 1.4007 59.5V8.5C1.4007 4.5645 4.69378 1.36212 8.74074 1.36212H227.259ZM227.259 0H8.74074C3.93552 0 0 3.82713 0 8.5V59.5C0 64.1729 3.93552 68 8.74074 68H227.259C232.064 68 236 64.1729 236 59.5V8.5C236 3.82713 232.064 0 227.259 0Z" fill="#A6A6A6"/>
<path d="M82.8922 17.4143C82.8922 18.8338 82.4551 19.9707 81.5942 20.8186C80.6043 21.8237 79.315 22.3294 77.7351 22.3294C76.2252 22.3294 74.9359 21.8152 73.8783 20.8016C72.8185 19.7731 72.2897 18.5108 72.2897 16.9999C72.2897 15.4891 72.8185 14.2268 73.8783 13.2068C74.9359 12.1847 76.2252 11.6704 77.7351 11.6704C78.4868 11.6704 79.2036 11.8213 79.8875 12.1018C80.5693 12.3844 81.1244 12.7669 81.5264 13.2387L80.613 14.1354C79.9116 13.3301 78.9567 12.9327 77.7351 12.9327C76.6338 12.9327 75.6789 13.3067 74.8682 14.0611C74.0662 14.8176 73.6641 15.7972 73.6641 16.9999C73.6641 18.2027 74.0662 19.1908 74.8682 19.9473C75.6789 20.6932 76.6338 21.0757 77.7351 21.0757C78.9042 21.0757 79.8875 20.6932 80.6633 19.9388C81.1746 19.4394 81.4653 18.7509 81.5417 17.8712H77.7351V16.6429H82.8135C82.8747 16.9086 82.8922 17.1657 82.8922 17.4143Z" fill="white"/>
<path d="M90.9492 13.1558H86.1789V16.3858H90.4794V17.614H86.1789V20.844H90.9492V22.0957H84.8285V11.9042H90.9492V13.1558Z" fill="white"/>
<path d="M96.6347 22.0957H95.2842V13.1558H92.3583V11.9042H99.5628V13.1558H96.6347V22.0957Z" fill="white"/>
<path d="M104.778 22.0957V11.9042H106.127V22.0957H104.778Z" fill="white"/>
<path d="M112.102 22.0957H110.763V13.1559H107.826V11.9042H115.039V13.1559H112.102V22.0957Z" fill="white"/>
<path d="M128.68 20.7844C127.646 21.815 126.366 22.3292 124.838 22.3292C123.302 22.3292 122.022 21.815 120.988 20.7844C119.957 19.7559 119.443 18.4936 119.443 16.9997C119.443 15.5059 119.957 14.2436 120.988 13.2151C122.022 12.1845 123.302 11.6702 124.838 11.6702C126.357 11.6702 127.638 12.1845 128.671 13.2236C129.711 14.2606 130.225 15.5144 130.225 16.9997C130.225 18.4936 129.711 19.7559 128.68 20.7844ZM121.987 19.9301C122.765 20.693 123.711 21.0755 124.838 21.0755C125.957 21.0755 126.912 20.693 127.681 19.9301C128.457 19.1672 128.85 18.1876 128.85 16.9997C128.85 15.8119 128.457 14.8322 127.681 14.0694C126.912 13.3065 125.957 12.924 124.838 12.924C123.711 12.924 122.765 13.3065 121.987 14.0694C121.211 14.8322 120.818 15.8119 120.818 16.9997C120.818 18.1876 121.211 19.1672 121.987 19.9301Z" fill="white"/>
<path d="M132.119 22.0957V11.9042H133.758L138.853 19.8305H138.912L138.853 17.8712V11.9042H140.202V22.0957H138.794L133.458 13.7785H133.399L133.458 15.7462V22.0957H132.119Z" fill="white"/>
<path d="M119.111 36.9795C115.005 36.9795 111.651 40.0182 111.651 44.2108C111.651 48.3695 115.005 51.4401 119.111 51.4401C123.226 51.4401 126.58 48.3695 126.58 44.2108C126.58 40.0182 123.226 36.9795 119.111 36.9795ZM119.111 48.5926C116.858 48.5926 114.92 46.7842 114.92 44.2108C114.92 41.6035 116.858 39.827 119.111 39.827C121.364 39.827 123.311 41.6035 123.311 44.2108C123.311 46.7842 121.364 48.5926 119.111 48.5926ZM102.834 36.9795C98.7191 36.9795 95.3736 40.0182 95.3736 44.2108C95.3736 48.3695 98.7191 51.4401 102.834 51.4401C106.946 51.4401 110.294 48.3695 110.294 44.2108C110.294 40.0182 106.946 36.9795 102.834 36.9795ZM102.834 48.5926C100.579 48.5926 98.6339 46.7842 98.6339 44.2108C98.6339 41.6035 100.579 39.827 102.834 39.827C105.087 39.827 107.025 41.6035 107.025 44.2108C107.025 46.7842 105.087 48.5926 102.834 48.5926ZM83.4643 39.1958V42.2686H91.0098C90.7891 43.9856 90.1991 45.2478 89.2944 46.1276C88.1931 47.1901 86.4777 48.3695 83.4643 48.3695C78.8208 48.3695 75.1847 44.7251 75.1847 40.2095C75.1847 35.6938 78.8208 32.0495 83.4643 32.0495C85.9751 32.0495 87.8019 33.0036 89.1502 34.2403L91.3769 32.075C89.4911 30.324 86.9825 28.9788 83.4643 28.9788C77.0967 28.9788 71.7452 34.0172 71.7452 40.2095C71.7452 46.4017 77.0967 51.4401 83.4643 51.4401C86.906 51.4401 89.4911 50.3436 91.5233 48.2866C93.6058 46.2615 94.2548 43.414 94.2548 41.1147C94.2548 40.4007 94.1936 39.7441 94.0843 39.1958H83.4643ZM162.669 41.578C162.054 39.9608 160.16 36.9795 156.301 36.9795C152.477 36.9795 149.293 39.9098 149.293 44.2108C149.293 48.2611 152.444 51.4401 156.668 51.4401C160.083 51.4401 162.054 49.415 162.865 48.2356L160.33 46.593C159.485 47.7957 158.333 48.5926 156.668 48.5926C155.014 48.5926 153.827 47.8552 153.067 46.4017L163.012 42.4003L162.669 41.578ZM152.529 43.9856C152.444 41.1976 154.756 39.7696 156.412 39.7696C157.71 39.7696 158.812 40.4007 159.179 41.3038L152.529 43.9856ZM144.446 51.0002H147.715V29.7502H144.446V51.0002ZM139.093 38.5902H138.983C138.249 37.7445 136.848 36.9795 135.074 36.9795C131.35 36.9795 127.946 40.1585 127.946 44.2342C127.946 48.2866 131.35 51.4401 135.074 51.4401C136.848 51.4401 138.249 50.6687 138.983 49.7975H139.093V50.8345C139.093 53.5991 137.574 55.0845 135.124 55.0845C133.127 55.0845 131.888 53.682 131.377 52.5026L128.534 53.6565C129.353 55.5732 131.523 57.932 135.124 57.932C138.957 57.932 142.191 55.739 142.191 50.4031V37.4193H139.093V38.5902ZM135.354 48.5926C133.101 48.5926 131.215 46.7587 131.215 44.2342C131.215 41.6863 133.101 39.827 135.354 39.827C137.574 39.827 139.324 41.6863 139.324 44.2342C139.324 46.7587 137.574 48.5926 135.354 48.5926ZM177.974 29.7502H170.155V51.0002H173.415V42.9486H177.974C181.594 42.9486 185.145 40.4007 185.145 36.3483C185.145 32.2981 181.586 29.7502 177.974 29.7502ZM178.059 39.9927H173.415V32.7061H178.059C180.493 32.7061 181.883 34.6717 181.883 36.3483C181.883 37.9931 180.493 39.9927 178.059 39.9927ZM198.213 36.9391C195.857 36.9391 193.408 37.9506 192.4 40.1925L195.293 41.3718C195.916 40.1925 197.061 39.81 198.272 39.81C199.963 39.81 201.678 40.7981 201.705 42.5427V42.7658C201.115 42.4343 199.852 41.9435 198.298 41.9435C195.182 41.9435 192.007 43.6116 192.007 46.7247C192.007 49.5722 194.559 51.4061 197.428 51.4061C199.622 51.4061 200.833 50.4435 201.593 49.3236H201.705V50.9662H204.854V42.8147C204.854 39.0471 201.96 36.9391 198.213 36.9391ZM197.819 48.5841C196.753 48.5841 195.267 48.0698 195.267 46.7842C195.267 45.1395 197.12 44.5083 198.724 44.5083C200.16 44.5083 200.833 44.8165 201.705 45.2223C201.449 47.1901 199.707 48.5841 197.819 48.5841ZM216.326 37.4045L212.578 46.6163H212.467L208.592 37.4045H205.076L210.898 50.2777L207.576 57.4411H210.983L219.953 37.4045H216.326ZM186.937 51.0002H190.206V29.7502H186.937V51.0002Z" fill="white"/>
<path d="M18.2415 12.8156C17.728 13.3383 17.4308 14.1522 17.4308 15.2062V52.8017C17.4308 53.8557 17.728 54.6696 18.2415 55.1923L18.3683 55.3071L40.0322 34.2483V33.7511L18.3683 12.6923L18.2415 12.8156Z" fill="url(#paint0_linear_4172_13350)"/>
<path d="M47.2449 41.2722L40.0322 34.2483V33.7511L47.2537 26.7287L47.4154 26.8201L55.9682 31.5525C58.409 32.8955 58.409 35.1055 55.9682 36.457L47.4154 41.1808L47.2449 41.2722Z" fill="url(#paint1_linear_4172_13350)"/>
<path d="M47.4154 41.1808L40.0325 34L18.2415 55.1923C19.0522 56.0211 20.3745 56.1213 21.8779 55.2925L47.4154 41.1808Z" fill="url(#paint2_linear_4172_13350)"/>
<path d="M47.4154 26.8201L21.8779 12.7075C20.3745 11.8872 19.0522 11.9868 18.2415 12.8156L40.0325 34L47.4154 26.8201Z" fill="url(#paint3_linear_4172_13350)"/>
<defs>
<linearGradient id="paint0_linear_4172_13350" x1="215.915" y1="3.37308" x2="202.677" y2="92.4562" gradientUnits="userSpaceOnUse">
<stop stop-color="#00A0FF"/>
<stop offset="0.0066" stop-color="#00A1FF"/>
<stop offset="0.2601" stop-color="#00BEFF"/>
<stop offset="0.5122" stop-color="#00D2FF"/>
<stop offset="0.7604" stop-color="#00DFFF"/>
<stop offset="1" stop-color="#00E3FF"/>
</linearGradient>
<linearGradient id="paint1_linear_4172_13350" x1="253.902" y1="34.0111" x2="-307.962" y2="34.0111" gradientUnits="userSpaceOnUse">
<stop stop-color="#FFE000"/>
<stop offset="0.4087" stop-color="#FFBD00"/>
<stop offset="0.7754" stop-color="#FFA500"/>
<stop offset="1" stop-color="#FF9C00"/>
</linearGradient>
<linearGradient id="paint2_linear_4172_13350" x1="203.521" y1="80.1387" x2="124.593" y2="291.262" gradientUnits="userSpaceOnUse">
<stop stop-color="#FF3A44"/>
<stop offset="1" stop-color="#C31162"/>
</linearGradient>
<linearGradient id="paint3_linear_4172_13350" x1="-44.371" y1="-104.836" x2="-9.10555" y2="-10.5368" gradientUnits="userSpaceOnUse">
<stop stop-color="#32A071"/>
<stop offset="0.0685" stop-color="#2DA771"/>
<stop offset="0.4762" stop-color="#15CF74"/>
<stop offset="0.8009" stop-color="#06E775"/>
<stop offset="1" stop-color="#00F076"/>
</linearGradient>
</defs>
</svg>
